<svg xmlns="http://www.w3.org/2000/svg" viewBox="0 0 512 512" width="512" height="512" role="img" aria-label="LexAI">
 <defs><linearGradient id="t" x1="0" y1="0" x2="0.4" y2="1"><stop offset="0" stop-color="#FFFFFF"/><stop offset="1" stop-color="#F1F3F8"/></linearGradient></defs>
 <rect width="512" height="512" rx="112" fill="url(#t)"/>
 <rect x="3" y="3" width="506" height="506" rx="110" fill="none" stroke="#DCE3EE" stroke-width="6"/>
 <svg x="56" y="56" width="400" height="400" viewBox="-100 -100 200 200">
  <path d="M10.4,-76 L60.6,-47 Q71,-41 71,-29 L71,29 Q71,41 60.6,47 L10.4,76 Q0,82 -10.4,76 L-60.6,47 Q-71,41 -71,29 L-71,-29 Q-71,-41 -60.6,-47 L-10.4,-76 Q0,-82 10.4,-76 Z" fill="none" stroke="#162F82" stroke-width="8"/>
  <path d="M-52,0 Q0,-34 52,0 Q0,34 -52,0 Z" fill="none" stroke="#162F82" stroke-width="8" stroke-linejoin="round"/>
  <circle r="18" fill="#162F82"/><circle r="7.5" fill="#FFFFFF"/><circle cx="-5.5" cy="-5.5" r="3.2" fill="#EE862B"/>
 </svg>
</svg>
