<svg xmlns="http://www.w3.org/2000/svg" viewBox="0 0 512 512" width="512" height="512" role="img" aria-label="LexAI">
 <defs><linearGradient id="t" x1="0" y1="0" x2="0.35" y2="1"><stop offset="0" stop-color="#26439E"/><stop offset="0.55" stop-color="#162F82"/><stop offset="1" stop-color="#0E1A3A"/></linearGradient></defs>
 <rect width="512" height="512" rx="112" fill="url(#t)"/>
 <path d="M0 112 Q0 0 112 0 L400 0 Q512 0 512 112 L512 150 Q256 66 0 150 Z" fill="#ffffff" opacity="0.06"/>
 <svg x="56" y="56" width="400" height="400" viewBox="-100 -100 200 200">
  <path d="M10.4,-76 L60.6,-47 Q71,-41 71,-29 L71,29 Q71,41 60.6,47 L10.4,76 Q0,82 -10.4,76 L-60.6,47 Q-71,41 -71,29 L-71,-29 Q-71,-41 -60.6,-47 L-10.4,-76 Q0,-82 10.4,-76 Z" fill="none" stroke="#EE862B" stroke-width="8"/>
  <path d="M-52,0 Q0,-34 52,0 Q0,34 -52,0 Z" fill="none" stroke="#EE862B" stroke-width="8" stroke-linejoin="round"/>
  <circle r="18" fill="#EE862B"/><circle r="7.5" fill="#0E1A3A"/><circle cx="-5.5" cy="-5.5" r="3.2" fill="#F7F4F0"/>
 </svg>
</svg>
