<svg xmlns="http://www.w3.org/2000/svg" viewBox="0 0 64 64" width="64" height="64" role="img" aria-label="LexAI">
  <defs>
    <linearGradient id="g" x1="0" y1="0" x2="1" y2="1">
      <stop offset="0" stop-color="#2563eb"/><stop offset="1" stop-color="#1d4ed8"/>
    </linearGradient>
  </defs>
  <rect x="2" y="2" width="60" height="60" rx="14" fill="url(#g)"/>
  <!-- belge -->
  <path d="M20 14h16l8 8v22a3 3 0 0 1-3 3H20a3 3 0 0 1-3-3V17a3 3 0 0 1 3-3z" fill="#fff" opacity=".95"/>
  <path d="M36 14v8h8" fill="none" stroke="#2563eb" stroke-width="2" stroke-linejoin="round" opacity=".5"/>
  <!-- metin satırları -->
  <g stroke="#9db8ef" stroke-width="2.4" stroke-linecap="round">
    <line x1="22" y1="27" x2="36" y2="27"/><line x1="22" y1="32" x2="38" y2="32"/>
  </g>
  <!-- mercek (AI/inceleme) -->
  <circle cx="33" cy="40" r="8.5" fill="none" stroke="#15803d" stroke-width="3.2"/>
  <line x1="39.2" y1="46.2" x2="46" y2="53" stroke="#15803d" stroke-width="4" stroke-linecap="round"/>
  <circle cx="33" cy="40" r="3.4" fill="#22c55e"/>
</svg>
