<svg xmlns="http://www.w3.org/2000/svg" viewBox="0 0 820 520" width="820" height="520" role="img" aria-label="LexAI yan-yana inceleme ekranı">
  <defs>
    <clipPath id="win"><rect x="8" y="8" width="804" height="504" rx="12"/></clipPath>
  </defs>
  <rect x="8" y="8" width="804" height="504" rx="12" fill="#11141d" stroke="#2a2e42"/>
  <g clip-path="url(#win)">
    <!-- başlık çubuğu -->
    <rect x="8" y="8" width="804" height="34" fill="#1d2030"/>
    <circle cx="28" cy="25" r="5" fill="#ef4444"/><circle cx="46" cy="25" r="5" fill="#f59e0b"/><circle cx="64" cy="25" r="5" fill="#22c55e"/>
    <text x="92" y="29" fill="#aeb4cc" font-family="Segoe UI,sans-serif" font-size="12" font-weight="700">LexAI OCR</text>

    <!-- sidebar -->
    <rect x="8" y="42" width="168" height="470" fill="#1a1d29"/>
    <text x="26" y="74" fill="#4aa3ff" font-family="Segoe UI,sans-serif" font-size="18" font-weight="800">LEXAI<tspan fill="#e6e8ee"> OCR</tspan></text>
    <rect x="24" y="92" width="136" height="22" rx="6" fill="#12141d" stroke="#2a2e42"/>
    <text x="32" y="107" fill="#6b7390" font-family="Segoe UI,sans-serif" font-size="9">Girdi klasörü…</text>
    <rect x="24" y="122" width="136" height="22" rx="6" fill="#12141d" stroke="#2a2e42"/>
    <text x="32" y="137" fill="#6b7390" font-family="Segoe UI,sans-serif" font-size="9">Çıktı klasörü…</text>
    <g font-family="Segoe UI,sans-serif" font-size="9" font-weight="700">
      <rect x="24" y="156" width="65" height="20" rx="6" fill="#1e2b46" stroke="#2563eb"/><text x="33" y="170" fill="#cfe0ff">☑ PDF</text>
      <rect x="95" y="156" width="65" height="20" rx="6" fill="#1e2b46" stroke="#2563eb"/><text x="104" y="170" fill="#cfe0ff">☑ UDF</text>
    </g>
    <rect x="24" y="196" width="136" height="34" rx="9" fill="#22c55e"/>
    <text x="92" y="218" fill="#06240f" font-family="Segoe UI,sans-serif" font-size="12" font-weight="800" text-anchor="middle">↩ ANALİZ ET</text>
    <text x="24" y="262" fill="#22c55e" font-family="Segoe UI,sans-serif" font-size="10" font-weight="700">✓ 177 sayfa</text>
    <text x="24" y="278" fill="#8a90a8" font-family="Segoe UI,sans-serif" font-size="9">101 dijital · 76 OCR</text>

    <!-- üst nav -->
    <rect x="176" y="42" width="636" height="50" fill="#1d2030"/>
    <text x="196" y="64" fill="#e6e8ee" font-family="Segoe UI,sans-serif" font-size="12" font-weight="600">17_EKSPER_RAPORU — s1/7</text>
    <rect x="196" y="72" width="86" height="15" rx="7" fill="#f59e0b22" stroke="#f59e0b"/><text x="203" y="83" fill="#f59e0b" font-family="Segoe UI,sans-serif" font-size="8" font-weight="700">Karma (dijital+OCR)</text>
    <rect x="290" y="72" width="34" height="15" rx="7" fill="#2a2e4255" stroke="#3a3f5c"/><text x="297" y="83" fill="#aeb4cc" font-family="Segoe UI,sans-serif" font-size="8" font-weight="700">PDF</text>
    <rect x="724" y="60" width="74" height="22" rx="7" fill="#22c55e"/><text x="761" y="75" fill="#06240f" font-family="Segoe UI,sans-serif" font-size="9" font-weight="800" text-anchor="middle">✓ OCR Yap</text>

    <!-- SOL PANE: orijinal + tespit -->
    <rect x="184" y="100" width="304" height="404" fill="#0e0f16"/>
    <rect x="206" y="118" width="260" height="368" rx="3" fill="#ffffff"/>
    <g stroke="#d8dde4" stroke-width="3">
      <line x1="222" y1="150" x2="372" y2="150"/><line x1="222" y1="166" x2="450" y2="166"/>
      <line x1="222" y1="182" x2="430" y2="182"/><line x1="222" y1="210" x2="450" y2="210"/>
      <line x1="222" y1="226" x2="410" y2="226"/><line x1="222" y1="242" x2="450" y2="242"/>
    </g>
    <!-- tespit kutuları -->
    <rect x="216" y="138" width="240" height="56" rx="2" fill="none" stroke="#3b82f6" stroke-width="2"/>
    <rect x="216" y="138" width="34" height="11" fill="#3b82f6"/><text x="220" y="147" fill="#fff" font-family="Segoe UI,sans-serif" font-size="7" font-weight="700">Metin</text>
    <rect x="216" y="200" width="240" height="50" rx="2" fill="none" stroke="#22c55e" stroke-width="2"/>
    <rect x="216" y="200" width="34" height="11" fill="#22c55e"/><text x="220" y="209" fill="#fff" font-family="Segoe UI,sans-serif" font-size="7" font-weight="700">Başlık</text>
    <!-- tablo tespiti -->
    <rect x="216" y="300" width="240" height="120" rx="2" fill="none" stroke="#f59e0b" stroke-width="2"/>
    <rect x="216" y="300" width="34" height="11" fill="#f59e0b"/><text x="220" y="309" fill="#06240f" font-family="Segoe UI,sans-serif" font-size="7" font-weight="700">Tablo</text>
    <g stroke="#e6ebf0" stroke-width="1"><line x1="216" y1="330" x2="456" y2="330"/><line x1="216" y1="360" x2="456" y2="360"/><line x1="216" y1="390" x2="456" y2="390"/><line x1="300" y1="300" x2="300" y2="420"/><line x1="380" y1="300" x2="380" y2="420"/></g>

    <!-- ayraç -->
    <rect x="488" y="100" width="2" height="404" fill="#2a2e42"/>

    <!-- SAĞ PANE: render -->
    <rect x="490" y="100" width="322" height="404" fill="#161821"/>
    <rect x="512" y="118" width="278" height="368" rx="3" fill="#ffffff"/>
    <g stroke="#14181f" stroke-width="2.6" stroke-linecap="round">
      <line x1="528" y1="150" x2="690" y2="150"/><line x1="528" y1="166" x2="762" y2="166"/>
      <line x1="528" y1="182" x2="742" y2="182"/>
    </g>
    <text x="600" y="212" fill="#14181f" font-family="Georgia,serif" font-size="12" font-weight="700" text-anchor="middle">KASKO EKSPERTİZ RAPORU</text>
    <!-- render tablo (konumlu hücreler) -->
    <g stroke="#b8bcc8" stroke-width="1" fill="none"><rect x="528" y="300" width="248" height="120"/><line x1="528" y1="330" x2="776" y2="330"/><line x1="528" y1="360" x2="776" y2="360"/><line x1="528" y1="390" x2="776" y2="390"/><line x1="612" y1="300" x2="612" y2="420"/><line x1="694" y1="300" x2="694" y2="420"/></g>
    <g fill="#14181f" font-family="Arial,sans-serif" font-size="8">
      <text x="534" y="318">Tazminat</text><text x="618" y="318">140.000,00</text><text x="700" y="318">0,00</text>
      <text x="534" y="348">Dosya Ted.</text><text x="618" y="348">97.691,80</text><text x="700" y="348">0,00</text>
      <text x="534" y="378">Parça Onar.</text><text x="618" y="378">3.776,41</text><text x="700" y="378">755,28</text>
    </g>
  </g>
</svg>
